<?xml version="1.0" encoding="utf-8"?>
<!-- Generator: Adobe Illustrator 16.0.0, SVG Export Plug-In . SVG Version: 6.00 Build 0)  -->
<!DOCTYPE svg PUBLIC "-//W3C//DTD SVG 1.1//EN" "http://www.w3.org/Graphics/SVG/1.1/DTD/svg11.dtd">
<svg version="1.1" id="Calque_1" xmlns="http://www.w3.org/2000/svg" xmlns:xlink="http://www.w3.org/1999/xlink" x="0px" y="0px"
	 width="1080px" height="1080px" viewBox="0 0 1080 1080" enable-background="new 0 0 1080 1080" xml:space="preserve">
<circle stroke="#000000" stroke-miterlimit="10" cx="542.271" cy="538.18" r="485.171"/>
<circle fill="none" stroke="#000000" stroke-width="23" stroke-miterlimit="10" cx="542.272" cy="538.18" r="518.965"/>
<g>
	<g>
		<path fill="#FFFFFF" d="M209.014,299.138h19.832l39.851,99.969l39.092-99.969h19.9v153.369h-21.043v-95.648h-0.479l-29.089,73.656
			h-17.549l-29.092-73.656h-0.38v95.648h-21.044V299.138z"/>
		<path fill="#FFFFFF" d="M357.035,375.822c0-17.85,0.476-29.795,1.428-35.839c1.018-6.043,2.573-10.928,4.671-14.652
			c3.367-7.055,8.766-13.343,16.196-18.863c7.307-5.588,16.422-8.451,27.348-8.592c11.054,0.142,20.264,3.016,27.633,8.626
			c7.305,5.54,12.578,11.851,15.818,18.933c2.349,3.719,3.968,8.592,4.856,14.623c0.823,6.031,1.236,17.953,1.236,35.765
			c0,17.533-0.413,29.384-1.236,35.554c-0.891,6.172-2.51,11.116-4.86,14.833c-3.239,7.083-8.513,13.325-15.818,18.724
			c-7.367,5.61-16.579,8.554-27.629,8.836c-10.928-0.282-20.041-3.226-27.348-8.836c-7.432-5.399-12.831-11.641-16.196-18.724
			c-1.017-2.314-1.938-4.523-2.763-6.627c-0.764-2.172-1.4-4.908-1.908-8.205C357.511,405.207,357.035,393.355,357.035,375.822z
			 M378.078,375.822c0,15.11,0.511,25.334,1.528,30.675c0.889,5.341,2.706,9.664,5.444,12.966c2.226,3.163,5.154,5.728,8.782,7.696
			c3.565,2.318,7.83,3.477,12.795,3.477c5.031,0,9.39-1.159,13.082-3.477c3.5-1.968,6.304-4.533,8.404-7.696
			c2.736-3.304,4.613-7.625,5.635-12.966c0.952-5.341,1.43-15.565,1.43-30.675c0-15.108-0.478-25.403-1.43-30.885
			c-1.021-5.201-2.898-9.453-5.635-12.756c-2.101-3.162-4.904-5.797-8.404-7.905c-3.692-2.038-8.051-3.126-13.082-3.268
			c-4.965,0.142-9.229,1.23-12.795,3.268c-3.628,2.108-6.557,4.743-8.782,7.905c-2.738,3.304-4.556,7.554-5.444,12.755
			C378.589,350.419,378.078,360.714,378.078,375.822z"/>
		<path fill="#FFFFFF" d="M482.125,299.138h21.045v98.966c0.126,10.459,2.863,18.426,8.209,23.898
			c5.22,5.756,11.933,8.634,20.145,8.634c8.207,0,14.985-2.878,20.333-8.634c5.22-5.473,7.892-13.439,8.02-23.898v-98.966h21.044
			v101.403c-0.256,16.13-4.991,28.928-14.209,38.396c-9.283,9.748-21.012,14.69-35.188,14.832
			c-13.925-0.142-25.559-5.079-34.902-14.816c-9.538-9.456-14.368-22.24-14.496-38.35V299.138z"/>
		<path fill="#FFFFFF" d="M611.646,299.138h21.043v131.498h67.747v21.871h-88.79V299.138z"/>
		<path fill="#FFFFFF" d="M723.743,299.138h21.042v153.369h-21.042V299.138z"/>
		<path fill="#FFFFFF" d="M775.708,299.138h19.839l62.942,109.028h0.384V299.138h21.043v153.369h-19.934l-62.85-109.029h-0.381
			v109.029h-21.044V299.138z"/>
		<path fill="#FFFFFF" d="M398.864,640.348h-0.384c-1.841,3.717-4.7,6.45-8.572,8.202c-3.814,1.821-9.085,2.731-15.817,2.731
			c-11.055-0.139-19.565-3.363-25.536-9.675c-6.29-6.17-9.433-14.058-9.433-23.663c0-9.186,2.732-16.793,8.195-22.824
			c5.461-6.17,13.465-9.324,24.01-9.466h27.537v-11.521c0.129-9.653-6.638-14.339-20.305-14.06c-4.959,0-8.863,0.564-11.724,1.691
			c-2.987,1.339-5.34,3.594-7.056,6.766l-15.632-13.164c7.555-10.882,18.698-16.18,33.432-15.9
			c12.443-0.14,22.381,2.456,29.812,7.784c7.428,5.47,11.204,14.868,11.332,28.19v74.582h-19.86V640.348z M354.97,495.39h26.137
			l17.934,31.337h-16.408L354.97,495.39z M398.864,603.727h-23.872c-11.59,0.281-17.322,4.668-17.188,13.159
			c0,3.721,1.495,6.877,4.487,9.476c2.865,2.877,7.607,4.313,14.229,4.313c8.338,0.144,14.226-0.946,17.665-3.261
			c3.118-2.316,4.68-7.58,4.68-15.791V603.727z"/>
		<path fill="#FFFFFF" d="M591.523,607.174c-3.053,14.212-8.869,25.135-17.45,32.768c-8.84,7.562-19.298,11.34-31.378,11.34
			c-10.928-0.28-20.045-3.224-27.349-8.834c-7.432-5.399-12.832-11.64-16.197-18.724c-1.018-2.314-1.94-4.522-2.765-6.626
			c-0.762-2.174-1.397-4.909-1.906-8.207c-0.954-6.17-1.429-18.021-1.429-35.554c0-17.812,0.477-29.734,1.431-35.766
			c1.017-6.03,2.571-10.903,4.671-14.621c3.365-7.083,8.769-13.394,16.206-18.935c7.307-5.609,16.427-8.484,27.359-8.626
			c13.408,0.142,24.34,4.517,32.791,13.129c8.453,8.683,13.792,19.432,16.016,32.245h-22.34c-1.72-6.183-4.842-11.454-9.358-15.81
			c-4.712-4.146-10.439-6.29-17.184-6.43c-4.967,0.14-9.231,1.228-12.797,3.267c-3.628,2.108-6.557,4.743-8.783,7.906
			c-2.736,3.303-4.549,7.555-5.439,12.756c-1.02,5.481-1.529,15.776-1.529,30.885c0,15.109,0.51,25.334,1.53,30.673
			c0.89,5.344,2.704,9.664,5.442,12.967c2.229,3.162,5.159,5.728,8.789,7.694c3.564,2.32,7.832,3.478,12.799,3.478
			c11.843,0,20.694-6.989,26.555-20.976H591.523z"/>
		<path fill="#FFFFFF" d="M609.873,496.653h21.043v153.369h-21.043V496.653z"/>
		<path fill="#FFFFFF" d="M661.837,496.653h88.791v21.871h-67.745v43.883h57.828v20.597h-57.828v45.146h67.745v21.872h-88.791
			V496.653z"/>
	</g>
	<g>
		<g>
			<path fill="#FFFFFF" d="M203.488,718.583h16.527v4.071h-12.609v8.168h10.763v3.834h-10.763v8.402h12.609v4.072h-16.527V718.583z"
				/>
			<path fill="#FFFFFF" d="M232.629,740.215c2.06,1.867,4.509,2.818,7.352,2.844c3.362-0.053,5.065-1.378,5.113-3.977
				c0.025-2.131-1.1-3.411-3.371-3.842c-1.042-0.157-2.183-0.333-3.426-0.529c-2.225-0.404-3.917-1.314-5.076-2.725
				c-1.194-1.448-1.793-3.212-1.793-5.291c0-2.494,0.752-4.507,2.253-6.035c1.453-1.515,3.515-2.287,6.187-2.312
				c3.216,0.079,6.011,1.061,8.385,2.95l-2.184,3.553c-1.941-1.412-4.078-2.145-6.408-2.196c-1.207,0-2.214,0.332-3.019,0.998
				c-0.841,0.693-1.273,1.726-1.294,3.097c0,0.823,0.287,1.567,0.867,2.233c0.581,0.681,1.508,1.149,2.786,1.41
				c0.71,0.132,1.681,0.282,2.911,0.452c2.426,0.365,4.218,1.327,5.377,2.881c1.147,1.528,1.722,3.306,1.722,5.33
				c-0.129,5.461-3.154,8.229-9.077,8.309c-3.831,0-7.121-1.298-9.876-3.896L232.629,740.215z"/>
			<path fill="#FFFFFF" d="M261.786,718.583h9.377c1.018,0,2.001,0.104,2.949,0.313c0.946,0.274,1.906,0.834,2.876,1.685
				c0.817,0.64,1.478,1.551,1.986,2.741c0.531,1.147,0.798,2.504,0.798,4.07c0,2.115-0.677,4.04-2.027,5.776
				c-1.385,1.825-3.409,2.767-6.074,2.816h-5.968v11.146h-3.917V718.583z M265.703,731.919h5.814
				c1.456-0.025,2.554-0.525,3.288-1.495c0.701-0.944,1.049-1.994,1.049-3.149c0-0.958-0.142-1.762-0.427-2.418
				c-0.296-0.59-0.711-1.055-1.244-1.396c-0.806-0.563-1.743-0.832-2.81-0.807h-5.671V731.919z"/>
			<path fill="#FFFFFF" d="M305.235,740.747h-9.812l-1.987,6.385h-4.151l9.403-28.548h3.282l9.404,28.548h-4.133L305.235,740.747z
				 M304.117,736.912l-3.742-12.489h-0.073l-3.743,12.489H304.117z"/>
			<path fill="#FFFFFF" d="M340.262,739.155c-0.568,2.646-1.651,4.677-3.249,6.099c-1.644,1.41-3.591,2.111-5.838,2.111
				c-2.035-0.052-3.732-0.599-5.093-1.644c-1.383-1.007-2.387-2.168-3.016-3.485c-0.188-0.433-0.358-0.845-0.514-1.234
				c-0.141-0.406-0.261-0.914-0.354-1.526c-0.177-1.149-0.264-3.355-0.264-6.618c0-3.313,0.087-5.533,0.265-6.657
				c0.189-1.121,0.479-2.029,0.867-2.723c0.629-1.315,1.635-2.492,3.018-3.523c1.36-1.043,3.059-1.58,5.093-1.605
				c2.496,0.025,4.532,0.841,6.104,2.444c1.574,1.616,2.567,3.616,2.98,6.002h-4.158c-0.32-1.151-0.899-2.133-1.742-2.942
				c-0.876-0.772-1.943-1.173-3.2-1.197c-0.921,0.024-1.715,0.229-2.379,0.606c-0.675,0.392-1.22,0.883-1.635,1.472
				c-0.509,0.614-0.849,1.406-1.013,2.376c-0.19,1.019-0.284,2.935-0.284,5.748c0,2.812,0.094,4.715,0.284,5.71
				c0.164,0.991,0.504,1.799,1.013,2.413c0.415,0.587,0.96,1.066,1.636,1.432c0.665,0.433,1.459,0.647,2.382,0.647
				c2.204,0,3.854-1.303,4.943-3.904H340.262z"/>
			<path fill="#FFFFFF" d="M351.631,718.583h16.527v4.071h-12.611v8.168h10.766v3.834h-10.766v8.402h12.611v4.072h-16.527V718.583z"
				/>
			<path fill="#FFFFFF" d="M397.398,718.583h9.051c3.503,0.025,6.13,1.633,7.882,4.816c0.625,1.07,1.022,2.192,1.187,3.367
				c0.13,1.175,0.195,3.205,0.195,6.09c0,3.067-0.101,5.208-0.304,6.423c-0.093,0.61-0.235,1.161-0.424,1.645
				c-0.201,0.467-0.443,0.958-0.728,1.468c-0.758,1.345-1.81,2.453-3.158,3.329c-1.339,0.94-2.977,1.41-4.918,1.41h-8.783V718.583z
				 M401.314,743.059h4.69c2.203,0,3.801-0.829,4.795-2.492c0.438-0.614,0.718-1.394,0.837-2.334
				c0.106-0.932,0.158-2.668,0.158-5.22c0-2.486-0.052-4.264-0.158-5.336c-0.143-1.072-0.479-1.941-1.012-2.61
				c-1.091-1.659-2.631-2.465-4.62-2.412h-4.69V743.059z"/>
			<path fill="#FFFFFF" d="M428.984,718.583h16.525v4.071H432.9v8.168h10.764v3.834H432.9v8.402h12.609v4.072h-16.525V718.583z"/>
			<path fill="#FFFFFF" d="M479.146,722.42h-7.09v-3.837h18.103v3.837h-7.095v24.711h-3.918V722.42z"/>
			<path fill="#FFFFFF" d="M501.462,718.583h10.106c2.157,0,3.916,0.626,5.278,1.878c1.637,1.422,2.494,3.454,2.564,6.092
				c-0.049,3.875-1.712,6.512-4.996,7.908l5.987,12.67h-4.653l-5.354-12.202h-5.017v12.202h-3.917V718.583z M505.379,731.096h5.939
				c1.473-0.026,2.573-0.496,3.312-1.414c0.722-0.85,1.086-1.896,1.086-3.141c-0.025-1.491-0.458-2.571-1.301-3.24
				c-0.665-0.587-1.624-0.881-2.882-0.881h-6.154V731.096z"/>
			<path fill="#FFFFFF" d="M545.551,740.747h-9.81l-1.986,6.385h-4.153l9.405-28.548h3.282l9.403,28.548h-4.134L545.551,740.747z
				 M544.435,736.912l-3.742-12.489h-0.071l-3.744,12.489H544.435z"/>
			<path fill="#FFFFFF" d="M560.437,718.583h4.147l5.863,21.745h0.07l5.883-21.745h4.146l-8.54,28.548h-3.05L560.437,718.583z"/>
			<path fill="#FFFFFF" d="M605.205,740.747h-9.813l-1.985,6.385h-4.151l9.402-28.548h3.284l9.402,28.548h-4.134L605.205,740.747z
				 M604.087,736.912l-3.744-12.489h-0.07l-3.744,12.489H604.087z"/>
			<path fill="#FFFFFF" d="M622.783,718.583h3.916v28.548h-3.916V718.583z"/>
			<path fill="#FFFFFF" d="M640.407,718.583h3.917v24.476h12.609v4.072h-16.526V718.583z"/>
			<path fill="#FFFFFF" d="M686.174,718.583h9.38c1.017,0,2,0.104,2.948,0.313c0.945,0.274,1.904,0.834,2.876,1.685
				c0.814,0.64,1.477,1.551,1.983,2.741c0.532,1.147,0.799,2.504,0.799,4.07c0,2.115-0.674,4.04-2.024,5.776
				c-1.387,1.825-3.411,2.767-6.076,2.816h-5.967v11.146h-3.919V718.583z M690.093,731.919h5.812
				c1.458-0.025,2.554-0.525,3.291-1.495c0.699-0.944,1.049-1.994,1.049-3.149c0-0.958-0.145-1.762-0.428-2.418
				c-0.297-0.59-0.711-1.055-1.245-1.396c-0.805-0.563-1.742-0.832-2.81-0.807h-5.669V731.919z"/>
			<path fill="#FFFFFF" d="M729.626,740.747h-9.813l-1.986,6.385h-4.151l9.402-28.548h3.283l9.401,28.548h-4.135L729.626,740.747z
				 M728.508,736.912l-3.744-12.489h-0.071l-3.744,12.489H728.508z"/>
			<path fill="#FFFFFF" d="M747.201,718.583h10.108c2.156,0,3.914,0.626,5.276,1.878c1.638,1.422,2.494,3.454,2.564,6.092
				c-0.048,3.875-1.713,6.512-4.997,7.908l5.988,12.67h-4.653l-5.354-12.202h-5.017v12.202h-3.916V718.583z M751.117,731.096h5.942
				c1.471-0.026,2.574-0.496,3.31-1.414c0.723-0.85,1.084-1.896,1.084-3.141c-0.023-1.491-0.458-2.571-1.3-3.24
				c-0.664-0.587-1.623-0.881-2.881-0.881h-6.155V731.096z"/>
			<path fill="#FFFFFF" d="M782.431,722.42h-7.089v-3.837h18.102v3.837h-7.096v24.711h-3.917V722.42z"/>
			<path fill="#FFFFFF" d="M818.005,740.747h-9.812l-1.987,6.385h-4.152l9.404-28.548h3.28l9.406,28.548h-4.136L818.005,740.747z
				 M816.886,736.912l-3.744-12.489h-0.071l-3.742,12.489H816.886z"/>
			<path fill="#FFFFFF" d="M843.968,731.429h9.195v5.807c-0.047,2.855-0.934,5.249-2.661,7.177c-1.736,1.915-3.926,2.9-6.561,2.952
				c-2.035-0.052-3.732-0.599-5.09-1.644c-1.383-1.007-2.389-2.168-3.014-3.485c-0.191-0.433-0.362-0.845-0.517-1.234
				c-0.142-0.406-0.261-0.914-0.355-1.526c-0.176-1.149-0.264-3.355-0.264-6.618c0-3.313,0.088-5.533,0.264-6.657
				c0.19-1.121,0.479-2.029,0.872-2.723c0.625-1.315,1.631-2.492,3.014-3.523c1.357-1.043,3.055-1.58,5.09-1.605
				c2.494,0.025,4.527,0.843,6.101,2.447c1.572,1.617,2.566,3.623,2.979,6.011h-4.155c-0.32-1.155-0.9-2.139-1.741-2.952
				c-0.877-0.774-1.943-1.175-3.197-1.199c-0.923,0.024-1.717,0.229-2.38,0.606c-0.675,0.392-1.221,0.883-1.634,1.472
				c-0.509,0.614-0.847,1.406-1.011,2.376c-0.19,1.019-0.286,2.935-0.286,5.748c0,2.812,0.096,4.715,0.286,5.71
				c0.164,0.991,0.502,1.799,1.013,2.413c0.413,0.587,0.959,1.066,1.636,1.432c0.663,0.433,1.457,0.647,2.38,0.647
				c1.528,0,2.791-0.574,3.787-1.728c0.994-1.102,1.505-2.548,1.526-4.341V735.5h-5.277V731.429z"/>
			<path fill="#FFFFFF" d="M866.415,718.583h16.527v4.071h-12.61v8.168h10.763v3.834h-10.763v8.402h12.61v4.072h-16.527V718.583z
				 M875.789,711.337h4.873l-5.154,5.836h-3.049L875.789,711.337z"/>
		</g>
	</g>
	<g>
		<g>
			<path fill="#FFFFFF" d="M508.268,224.584h5.76v35.994h18.544v5.987h-24.304V224.584z"/>
			<path fill="#FFFFFF" d="M550.647,224.584h24.303v5.986h-18.544v12.011h15.829v5.639h-15.829v12.357h18.544v5.987h-24.303V224.584
				z"/>
		</g>
	</g>
	<rect x="207.848" y="689.926" fill="#FFFFFF" width="677.563" height="1.573"/>
	<rect x="207.461" y="249.212" fill="#FFFFFF" width="282.536" height="1.572"/>
	<rect x="597.938" y="249.212" fill="#FFFFFF" width="282.537" height="1.572"/>
	<g>
		<path fill="#FFFFFF" d="M593.753,794.416c-11.975,0-18.052-3.213-23.928-6.319c-5.972-3.155-11.611-6.136-23.196-6.136
			c-11.588,0-17.227,2.98-23.197,6.136c-5.876,3.106-11.951,6.319-23.931,6.319c-11.975,0-18.053-3.213-23.93-6.319
			c-5.97-3.155-11.606-6.136-23.193-6.136v-1.572c11.976,0,18.053,3.21,23.93,6.316c5.97,3.157,11.608,6.138,23.193,6.138
			c11.588,0,17.227-2.98,23.196-6.138c5.877-3.106,11.953-6.316,23.932-6.316c11.976,0,18.053,3.21,23.928,6.316
			c5.972,3.157,11.61,6.138,23.196,6.138c11.589,0,17.229-2.98,23.198-6.138c5.878-3.106,11.953-6.316,23.929-6.316v1.572
			c-11.586,0-17.226,2.98-23.195,6.136C611.808,791.203,605.732,794.416,593.753,794.416z"/>
		<path fill="#FFFFFF" d="M593.753,814.651c-11.975,0-18.052-3.212-23.928-6.316c-5.972-3.157-11.611-6.136-23.196-6.136
			c-11.588,0-17.227,2.979-23.197,6.136c-5.876,3.104-11.951,6.316-23.931,6.316c-11.975,0-18.053-3.212-23.93-6.316
			c-5.97-3.157-11.606-6.136-23.193-6.136v-1.573c11.976,0,18.053,3.211,23.93,6.317c5.97,3.155,11.608,6.136,23.193,6.136
			c11.588,0,17.227-2.98,23.196-6.136c5.877-3.106,11.953-6.317,23.932-6.317c11.976,0,18.053,3.211,23.928,6.317
			c5.972,3.155,11.61,6.136,23.196,6.136c11.589,0,17.229-2.98,23.198-6.136c5.878-3.106,11.953-6.317,23.929-6.317v1.573
			c-11.586,0-17.226,2.979-23.195,6.136C611.808,811.439,605.732,814.651,593.753,814.651z"/>
		<path fill="#FFFFFF" d="M593.753,835.786c-11.975,0-18.052-3.213-23.928-6.319c-5.972-3.154-11.611-6.135-23.196-6.135
			c-11.588,0-17.227,2.98-23.197,6.135c-5.876,3.106-11.951,6.319-23.931,6.319c-11.975,0-18.053-3.213-23.93-6.319
			c-5.97-3.154-11.606-6.135-23.193-6.135v-1.573c11.976,0,18.053,3.211,23.93,6.319c5.97,3.155,11.608,6.136,23.193,6.136
			c11.588,0,17.227-2.98,23.196-6.136c5.877-3.108,11.953-6.319,23.932-6.319c11.976,0,18.053,3.211,23.928,6.319
			c5.972,3.155,11.61,6.136,23.196,6.136c11.589,0,17.229-2.98,23.198-6.136c5.878-3.108,11.953-6.319,23.929-6.319v1.573
			c-11.586,0-17.226,2.98-23.195,6.135C611.808,832.573,605.732,835.786,593.753,835.786z"/>
	</g>
	<g>
		<g>
			<path fill="#FFFFFF" d="M432.664,885.939c-0.568,2.646-1.651,4.679-3.247,6.101c-1.646,1.406-3.593,2.111-5.842,2.111
				c-2.034-0.054-3.73-0.603-5.09-1.646c-1.385-1.005-2.388-2.168-3.016-3.483c-0.189-0.433-0.359-0.844-0.514-1.236
				c-0.142-0.402-0.262-0.912-0.354-1.526c-0.177-1.147-0.266-3.354-0.266-6.616c0-3.317,0.089-5.535,0.267-6.659
				c0.188-1.121,0.479-2.026,0.867-2.721c0.628-1.319,1.633-2.493,3.018-3.525c1.359-1.043,3.058-1.58,5.092-1.604
				c2.496,0.023,4.532,0.841,6.104,2.442c1.574,1.617,2.566,3.618,2.98,6.004h-4.158c-0.321-1.153-0.9-2.133-1.741-2.944
				c-0.877-0.772-1.943-1.171-3.201-1.197c-0.922,0.026-1.715,0.229-2.378,0.608c-0.678,0.394-1.221,0.885-1.636,1.472
				c-0.51,0.614-0.849,1.406-1.014,2.373c-0.189,1.02-0.284,2.938-0.284,5.751c0,2.811,0.095,4.714,0.284,5.708
				c0.165,0.995,0.504,1.799,1.014,2.413c0.415,0.59,0.96,1.068,1.638,1.434c0.663,0.431,1.457,0.647,2.38,0.647
				c2.205,0,3.853-1.305,4.944-3.906H432.664z"/>
			<path fill="#FFFFFF" d="M458.214,881.441H447.95v12.475h-3.915v-28.547h3.915v12.24h10.264v-12.24h3.915v28.547h-3.915V881.441z"
				/>
			<path fill="#FFFFFF" d="M476.296,865.369h3.918v28.547h-3.918V865.369z"/>
			<path fill="#FFFFFF" d="M511.372,885.939c-0.567,2.646-1.651,4.679-3.249,6.101c-1.644,1.406-3.591,2.111-5.84,2.111
				c-2.033-0.054-3.73-0.603-5.091-1.646c-1.385-1.005-2.388-2.168-3.014-3.483c-0.19-0.433-0.362-0.844-0.514-1.236
				c-0.143-0.402-0.263-0.912-0.357-1.526c-0.178-1.147-0.265-3.354-0.265-6.616c0-3.317,0.087-5.535,0.267-6.659
				c0.189-1.121,0.479-2.026,0.869-2.721c0.626-1.319,1.631-2.493,3.014-3.525c1.362-1.043,3.06-1.58,5.096-1.604
				c2.495,0.023,4.529,0.841,6.102,2.442c1.575,1.617,2.567,3.618,2.982,6.004h-4.157c-0.322-1.153-0.903-2.133-1.742-2.944
				c-0.877-0.772-1.943-1.171-3.199-1.197c-0.923,0.026-1.719,0.229-2.382,0.608c-0.675,0.394-1.219,0.885-1.636,1.472
				c-0.51,0.614-0.846,1.406-1.013,2.373c-0.189,1.02-0.282,2.938-0.282,5.751c0,2.811,0.093,4.714,0.282,5.708
				c0.167,0.995,0.503,1.799,1.013,2.413c0.417,0.59,0.961,1.068,1.636,1.434c0.665,0.431,1.461,0.647,2.384,0.647
				c2.204,0,3.853-1.305,4.941-3.906H511.372z"/>
			<path fill="#FFFFFF" d="M521.861,879.643c0-3.325,0.088-5.547,0.264-6.671c0.189-1.126,0.482-2.036,0.87-2.728
				c0.629-1.314,1.634-2.484,3.016-3.513c1.359-1.039,3.058-1.574,5.09-1.598c2.059,0.023,3.771,0.561,5.144,1.604
				c1.36,1.032,2.341,2.206,2.945,3.525c0.437,0.694,0.738,1.6,0.903,2.721c0.153,1.124,0.23,3.342,0.23,6.659
				c0,3.263-0.077,5.469-0.23,6.616c-0.166,1.151-0.467,2.069-0.905,2.763c-0.603,1.315-1.584,2.479-2.943,3.483
				c-1.372,1.043-3.085,1.592-5.144,1.646c-2.032-0.054-3.73-0.603-5.09-1.646c-1.383-1.005-2.387-2.168-3.016-3.483
				c-0.188-0.433-0.359-0.844-0.514-1.236c-0.142-0.402-0.261-0.912-0.356-1.526C521.949,885.112,521.861,882.906,521.861,879.643z
				 M525.778,879.643c0,2.811,0.095,4.714,0.284,5.708c0.167,0.995,0.504,1.799,1.013,2.413c0.415,0.59,0.96,1.068,1.634,1.434
				c0.665,0.431,1.459,0.647,2.383,0.647c0.937,0,1.748-0.217,2.436-0.647c0.651-0.365,1.173-0.844,1.562-1.434
				c0.511-0.614,0.859-1.418,1.049-2.413c0.18-0.994,0.269-2.897,0.269-5.708c0-2.813-0.089-4.731-0.269-5.751
				c-0.189-0.967-0.538-1.759-1.049-2.373c-0.39-0.587-0.911-1.078-1.562-1.472c-0.688-0.379-1.499-0.582-2.436-0.608
				c-0.924,0.026-1.718,0.229-2.383,0.608c-0.674,0.394-1.219,0.885-1.634,1.472c-0.509,0.614-0.846,1.404-1.013,2.373
				C525.873,874.912,525.778,876.83,525.778,879.643z"/>
			<path fill="#FFFFFF" d="M553.099,865.369h3.917v18.42c0.022,1.947,0.532,3.431,1.527,4.449c0.973,1.07,2.222,1.607,3.75,1.607
				c1.527,0,2.789-0.537,3.784-1.607c0.972-1.019,1.47-2.502,1.492-4.449v-18.42h3.918v18.874c-0.048,3.002-0.931,5.384-2.646,7.146
				c-1.727,1.816-3.909,2.735-6.549,2.763c-2.591-0.027-4.757-0.946-6.497-2.759c-1.775-1.762-2.674-4.138-2.697-7.138V865.369z"/>
			<path fill="#FFFFFF" d="M589.555,869.205h-7.09v-3.836h18.104v3.836h-7.096v24.711h-3.918V869.205z"/>
			<path fill="#FFFFFF" d="M611.87,865.369h3.918v28.547h-3.918V865.369z"/>
			<path fill="#FFFFFF" d="M629.496,865.369h3.693l7.418,18.607l7.276-18.607h3.703v28.547h-3.917v-17.804h-0.09l-5.415,13.708
				H638.9l-5.415-13.708h-0.07v17.804h-3.919V865.369z"/>
			<path fill="#FFFFFF" d="M665.882,865.369h3.915v28.547h-3.915V865.369z"/>
		</g>
	</g>
</g>
</svg>
